<svg width="86" height="27" viewBox="0 0 86 27" fill="none" xmlns="http://www.w3.org/2000/svg">
<g clip-path="url(#clip0_4055_14)">
<path d="M48.4709 19.3659H51.6655L53.6173 9.8274H56.013L56.3662 8.05287H54.0165L54.1055 7.65366C54.2385 6.90121 54.5048 6.05637 55.7024 6.05637C56.413 6.05637 57.0781 6.10069 57.7432 6.41128L58.0985 4.54813C57.3573 4.2866 56.5774 4.15151 55.7914 4.1485C53.2181 4.1485 51.444 5.65716 50.778 8.05287H49.669L49.3141 9.8274H50.4231L48.4709 19.3659Z" fill="#EA1D2C"/>
<path d="M58.5863 17.0593C62.3574 17.0593 64.9751 13.6427 64.9751 10.8478C64.9751 8.76267 63.0672 7.8752 61.204 7.8752C57.0769 7.8752 54.8153 11.5597 54.8153 14.0867C54.8153 16.1718 56.7675 17.0593 58.5863 17.0593ZM68.7026 17.0593C72.4736 17.0593 75.0913 13.6427 75.0913 10.8478C75.0913 8.76267 73.1391 7.8752 71.2756 7.8752C67.1496 7.8752 64.8873 11.5576 64.8873 14.0867C64.8873 16.1718 66.8838 17.0593 68.7026 17.0593ZM80.282 16.8816H83.4318L86.0043 4.32782H82.8102L82.0557 8.05453L80.7247 7.9216C77.6191 7.9216 74.7799 11.9142 74.7799 14.7538C74.7799 15.9072 75.5323 17.0609 76.8207 17.0609C78.6395 17.0609 79.9262 16.1735 80.4575 15.286H80.6348L80.282 16.8816ZM70.432 23.4923C67.9526 25.5466 64.7681 26.5497 61.5589 26.2872C57.344 26.0209 54.3271 22.7821 53.7949 19.3659H53.9722C54.9483 21.4979 57.2997 23.4923 60.1836 23.8025C63.1098 24.1574 66.6167 22.8268 68.5241 21.0075L66.3947 19.3659H72.8277L71.4064 26.1986L70.4746 23.5366L70.432 23.4923Z" fill="#EA1D2C"/>
</g>
<path d="M5.65142 16.6422C5.63538 16.7247 5.59762 16.7955 5.53813 16.8544C5.48094 16.9015 5.40431 16.9251 5.30824 16.9251H2.71453C2.63047 16.9251 2.56301 16.9015 2.51213 16.8544C2.47556 16.7955 2.46529 16.7247 2.48133 16.6422L4.85274 4.44236C4.87107 4.34806 4.90884 4.27733 4.96603 4.23019C5.03524 4.18304 5.11187 4.15946 5.19592 4.15946H13.8957C13.9917 4.15946 14.0592 4.18304 14.0981 4.23019C14.1369 4.27733 14.1472 4.34806 14.1289 4.44236L13.6683 6.81161C13.6523 6.89412 13.6145 6.96484 13.555 7.02378C13.4978 7.07093 13.4212 7.0945 13.3252 7.0945H7.50731L7.00897 9.65824H11.9622C12.0583 9.65824 12.1258 9.68182 12.1646 9.72897C12.2035 9.77612 12.2138 9.84684 12.1954 9.94114L11.7349 12.3104C11.7189 12.3929 11.6811 12.4636 11.6216 12.5226C11.5644 12.5697 11.4878 12.5933 11.3917 12.5933H6.43846L5.65142 16.6422ZM18.0631 17.1903C16.8383 17.1903 15.8406 16.9487 15.07 16.4654C14.3016 15.9703 13.8113 15.2808 13.5989 14.3967C13.5886 14.326 13.5857 14.2789 13.5903 14.2553C13.6087 14.161 13.6836 14.0844 13.8151 14.0254L16.1433 12.9823L16.2943 12.9469C16.3903 12.9469 16.4652 12.9941 16.5189 13.0883C16.7298 13.5481 17.0007 13.884 17.3317 14.0962C17.677 14.2965 18.1018 14.3967 18.6062 14.3967C19.1465 14.3967 19.5791 14.3024 19.904 14.1138C20.2431 13.9135 20.4436 13.6541 20.5055 13.3359C20.5742 12.9823 20.4743 12.6935 20.2056 12.4695C19.9369 12.2456 19.4824 12.0511 18.842 11.886C18.021 11.6621 17.3198 11.4087 16.7383 11.1258C16.1592 10.8311 15.7062 10.4126 15.3793 9.87041C15.0547 9.31641 14.976 8.60917 15.1433 7.7487C15.2785 7.05325 15.5895 6.41084 16.0763 5.82147C16.5751 5.23211 17.2179 4.76651 18.0049 4.42468C18.8061 4.07106 19.699 3.89425 20.6837 3.89425C21.8845 3.89425 22.8364 4.1241 23.5396 4.5838C24.2548 5.04351 24.7229 5.66234 24.9439 6.44031C24.9542 6.51103 24.9582 6.55229 24.9559 6.56407C24.9398 6.64658 24.8638 6.7291 24.7276 6.81161L22.4063 7.81942C22.3394 7.85478 22.2819 7.87246 22.2339 7.87246C22.1499 7.87246 22.087 7.82532 22.0453 7.73102C21.8498 7.3774 21.594 7.11808 21.2779 6.95305C20.976 6.77624 20.597 6.68784 20.1407 6.68784C19.6723 6.68784 19.2949 6.77624 19.0084 6.95305C18.7361 7.11808 18.5737 7.33614 18.521 7.60725C18.4637 7.90193 18.538 8.13768 18.7437 8.31449C18.9518 8.47951 19.3412 8.63864 19.9118 8.79187C20.822 9.0512 21.5873 9.34588 22.2076 9.67592C22.8302 9.99418 23.3075 10.4421 23.6395 11.0197C23.9835 11.5973 24.0708 12.3222 23.9012 13.1944C23.7592 13.9252 23.4304 14.5971 22.915 15.2101C22.4019 15.8112 21.7256 16.2945 20.8861 16.6599C20.0608 17.0135 19.1198 17.1903 18.0631 17.1903ZM30.6056 16.6953C30.5278 16.8485 30.4048 16.9251 30.2367 16.9251H27.1747C27.0066 16.9251 26.9205 16.8426 26.9166 16.6776L26.5502 4.47772L26.5674 4.38931C26.5972 4.23608 26.6961 4.15946 26.8642 4.15946H29.6201C29.8002 4.15946 29.8922 4.24197 29.8962 4.40699L29.9199 12.717L33.2673 5.87452C33.3451 5.72128 33.4681 5.64466 33.6362 5.64466H35.9778C36.1459 5.64466 36.239 5.72128 36.2573 5.87452L36.9806 12.717L40.307 4.40699C40.3751 4.24197 40.4992 4.15946 40.6794 4.15946H43.165C43.2611 4.15946 43.3274 4.18893 43.364 4.24787C43.4005 4.3068 43.3977 4.38342 43.3553 4.47772L38.2461 16.6776C38.178 16.8426 38.0599 16.9251 37.8918 16.9251H34.8297C34.6616 16.9251 34.5685 16.8485 34.5502 16.6953L33.8482 10.2064L30.6056 16.6953Z" fill="#EA1D2C"/>
<defs>
<clipPath id="clip0_4055_14">
<rect width="37.7691" height="22.3046" fill="white" transform="translate(48.198 4.1485)"/>
</clipPath>
</defs>
</svg>
