<svg width="76" height="30" viewBox="0 0 76 30" fill="none" xmlns="http://www.w3.org/2000/svg">
<g clip-path="url(#clip0_8_3)">
<path d="M31.6609 21.7387H35.3847L37.6598 10.6198H40.4525L40.8642 8.55125H38.1252L38.229 8.08589C38.384 7.20878 38.6944 6.22397 40.0904 6.22397C40.9188 6.22397 41.6941 6.27562 42.4694 6.63768L42.8836 4.46584C42.0195 4.16099 41.1104 4.00351 40.1942 4C37.1945 4 35.1264 5.75861 34.3502 8.55125H33.0574L32.6437 10.6198H33.9365L31.6609 21.7387Z" fill="#EA1D2C"/>
<path d="M43.4522 19.0498C47.848 19.0498 50.8994 15.0672 50.8994 11.8092C50.8994 9.37866 48.6754 8.34416 46.5036 8.34416C41.6926 8.34416 39.0564 12.6391 39.0564 15.5847C39.0564 18.0153 41.332 19.0498 43.4522 19.0498ZM55.2445 19.0498C59.6403 19.0498 62.6917 15.0672 62.6917 11.8092C62.6917 9.37866 60.4161 8.34416 58.2437 8.34416C53.4342 8.34416 50.797 12.6367 50.797 15.5847C50.797 18.0153 53.1243 19.0498 55.2445 19.0498ZM68.7423 18.8427H72.414L75.4128 4.20905H71.6894L70.8099 8.5532L69.2583 8.39824C65.6383 8.39824 62.3287 13.0523 62.3287 16.3624C62.3287 17.7069 63.2058 19.0518 64.7076 19.0518C66.8278 19.0518 68.3276 18.0173 68.947 16.9828H69.1536L68.7423 18.8427ZM57.2604 26.5487C54.3702 28.9433 50.6581 30.1126 46.9173 29.8067C42.004 29.4963 38.4872 25.7208 37.8669 21.7387H38.0735C39.2113 24.2238 41.9523 26.5487 45.3141 26.9102C48.7251 27.3239 52.8129 25.7729 55.0364 23.6522L52.5542 21.7387H60.053L58.3963 29.7034L57.3101 26.6003L57.2604 26.5487Z" fill="#EA1D2C"/>
</g>
<path d="M18.394 6.63236L15.4854 21.5958H12.8194L14.046 15.2854L14.6268 12.795L13.642 13.9347L10.036 17.3326L7.75102 13.9347L7.2093 12.795L6.84347 15.2854L5.61685 21.5958H2.95085L5.85945 6.63236H6.07445L10.7734 13.6498L18.1575 6.63236H18.394ZM30.4697 6.88562L27.6103 21.5958H24.8153L26.0297 15.3487H21.0847L19.8703 21.5958H17.0968L19.9562 6.88562H22.7297L21.5359 13.0272H26.4809L27.6747 6.88562H30.4697Z" fill="#EA1D2C"/>
<defs>
<clipPath id="clip0_8_3">
<rect width="44.0267" height="26" fill="white" transform="translate(31.3427 4)"/>
</clipPath>
</defs>
</svg>
